<svg xmlns="http://www.w3.org/2000/svg" width="512" height="512" viewBox="0 0 512 512">
  <defs>
    <linearGradient id="fold" x1="192" y1="64" x2="414" y2="437" gradientUnits="userSpaceOnUse">
      <stop stop-color="#d4c9ff"/>
      <stop offset=".46" stop-color="#a991f2"/>
      <stop offset="1" stop-color="#7060c9"/>
    </linearGradient>
    <linearGradient id="spine" x1="62" y1="122" x2="145" y2="404" gradientUnits="userSpaceOnUse">
      <stop stop-color="#eee9ff"/>
      <stop offset="1" stop-color="#b8a5f8"/>
    </linearGradient>
  </defs>
  <!-- A split, folded D. The silhouette and centre remain transparent. -->
  <path fill="url(#spine)" d="M73 126 127 95Q144 85 144 105V364Q144 380 130 388L77 419Q60 429 60 409V149Q60 133 73 126Z"/>
  <path fill="url(#fold)" d="M192 83 244 53Q256 46 268 53L355 103C421 141 458 196 458 256S421 371 355 409L268 459Q256 466 244 459L192 429V333L256 370 311 338C350 315 374 289 374 256S350 197 311 174L192 105Z"/>
  <path fill="#eee8ff" opacity=".35" d="M192 83 244 53Q256 46 268 53L355 103C397 127 427 158 443 193L310 116Q256 85 192 105Z"/>
  <path fill="#5f4daf" opacity=".35" d="M192 333 256 370 311 338C350 315 374 289 374 256 400 321 365 387 307 420L256 450 192 413Z"/>
</svg>
